<svg xmlns="http://www.w3.org/2000/svg" viewBox="0 0 442.1 442.1"><defs><style>.cls-1{fill:none;}</style></defs><g id="Layer_2" data-name="Layer 2"><g id="Layer_1-2" data-name="Layer 1"><path d="M187,269.4a48.25,48.25,0,0,1-46.8-36.3,5,5,0,0,0-6.1-3.6,4.91,4.91,0,0,0-3.8,4.8,5.7,5.7,0,0,0,.1,1.3,58.3,58.3,0,1,0,0-29,5,5,0,0,0,9.7,2.5A48.35,48.35,0,1,1,187,269.4Z"/><path d="M192.9,150.2a4.88,4.88,0,0,0,4.2,4.9,67.45,67.45,0,0,1,29.1,12.1,5,5,0,0,0,5.9-8.1,75.91,75.91,0,0,0-33.4-13.9,5.05,5.05,0,0,0-5.7,4.2A2.2,2.2,0,0,0,192.9,150.2Z"/><path d="M121.5,208.8a67.23,67.23,0,0,1,11.7-27,5,5,0,0,0-8.1-5.9,75.57,75.57,0,0,0-13.5,31,2.77,2.77,0,0,0-.1.9,5.12,5.12,0,0,0,4.2,5A5,5,0,0,0,121.5,208.8Z"/><path d="M141.7,159.2a4.76,4.76,0,0,0-2.1,4,6.54,6.54,0,0,0,.9,3,5.07,5.07,0,0,0,7,1.1,66.75,66.75,0,0,1,29.1-12.1,4.93,4.93,0,0,0,4.2-5.7,5,5,0,0,0-5.7-4.2A77.6,77.6,0,0,0,141.7,159.2Z"/><path d="M239.8,178.8a4.45,4.45,0,0,0,1,2.9,66.75,66.75,0,0,1,12.1,29.1,5,5,0,0,0,9.9-1.5,77.6,77.6,0,0,0-13.9-33.4,5.07,5.07,0,0,0-7-1.1A4.76,4.76,0,0,0,239.8,178.8Z"/><path d="M132,267.4a5.07,5.07,0,0,0,1.1-7,65.87,65.87,0,0,1-11.7-27,5,5,0,0,0-9.9.9v1a77.52,77.52,0,0,0,13.5,31A5.07,5.07,0,0,0,132,267.4Z"/><path d="M180.9,292.5a5.05,5.05,0,0,0-4.2-5.7,66.1,66.1,0,0,1-29.1-12,5.07,5.07,0,0,0-7,1.1,4.92,4.92,0,0,0-1,3,4.25,4.25,0,0,0,2.2,3.9,75.91,75.91,0,0,0,33.4,13.9A5.05,5.05,0,0,0,180.9,292.5Z"/><path d="M198.7,297a77.6,77.6,0,0,0,33.4-13.9,5,5,0,1,0-5.9-8.1,67.8,67.8,0,0,1-29.1,12,5,5,0,0,0-4.2,4.9c0,.2.1.5.1.9A5.05,5.05,0,0,0,198.7,297Z"/><path d="M240.8,260.3a4.92,4.92,0,0,0-1,3,4.49,4.49,0,0,0,2,3.9,5.07,5.07,0,0,0,7-1.1,77.1,77.1,0,0,0,13.9-33.4,5,5,0,1,0-9.9-1.5A66.1,66.1,0,0,1,240.8,260.3Z"/><path d="M256.3,419.8A22.33,22.33,0,0,0,239,398.07V368.5a5,5,0,0,0-5-5H203.7V317.55A97,97,0,0,0,234,306.91V338.3a5,5,0,0,0,5,5h26.5v40.4a5,5,0,0,0,5,5h19.89a22.31,22.31,0,1,0,0-10H275.5V338.3a5,5,0,0,0-5-5H244V300.59a98.66,98.66,0,0,0,21.36-21H283.8v35.3a5,5,0,0,0,5,5h19.27a22.3,22.3,0,1,0,0-10H293.8V274.6a5,5,0,0,0-5-5H271.93a97.12,97.12,0,0,0,12.74-43.5h23.41a22.28,22.28,0,1,0,0-10h-23.4a97.18,97.18,0,0,0-12.8-43.6H288.8a5,5,0,0,0,5-5V132.2h14.28a22.28,22.28,0,1,0,0-10H288.8a5,5,0,0,0-5,5v35.3H265.29A98.78,98.78,0,0,0,244,141.61V108.9h26.5a5,5,0,0,0,5-5V63.5h14.88a22.28,22.28,0,1,0,0-10H270.5a5,5,0,0,0-5,5V98.8H239a5,5,0,0,0-5,5v31.49a97.31,97.31,0,0,0-30.4-10.66v-46H234a5,5,0,0,0,5-5V43.93a22.3,22.3,0,1,0-10,0V68.6H198.7a5,5,0,0,0-5,5v49.84c-2.25-.15-4.51-.24-6.8-.24A98,98,0,0,0,90,207.1v.7a5,5,0,0,0,10,.7c6.2-42.9,43.6-75.3,87-75.3a87.42,87.42,0,0,1,48.87,14.86,5.63,5.63,0,0,0,.74.5,88.53,88.53,0,0,1,21.8,21.33,5.15,5.15,0,0,0,.74,1,87.47,87.47,0,0,1,15.74,49.27,5.28,5.28,0,0,0-.09.9,5.15,5.15,0,0,0,.09.88,87.32,87.32,0,0,1-15.58,49,5,5,0,0,0-1,1.45,88.56,88.56,0,0,1-21.73,21.19,4.36,4.36,0,0,0-.75.52,87.57,87.57,0,0,1-37,14h-.08a4.75,4.75,0,0,0-1.27.18A89.87,89.87,0,0,1,187,309a87.54,87.54,0,0,1-81.6-55.1,5,5,0,0,0-9.3,3.7A97.41,97.41,0,0,0,186.9,319c2.29,0,4.55-.09,6.8-.24V368.5a4.93,4.93,0,0,0,4.9,5H229v24.57a22.3,22.3,0,1,0,27.3,21.73ZM312,371.3a12.3,12.3,0,1,1-12.26,13c0-.21.06-.42.06-.64a5.69,5.69,0,0,0-.07-.71A12.28,12.28,0,0,1,312,371.3Zm17.7-68.7a12.3,12.3,0,1,1-12.27,13,3.24,3.24,0,0,0,0-1.34A12.28,12.28,0,0,1,329.7,302.6Zm0-187.7a12.3,12.3,0,1,1-12.27,13,3.24,3.24,0,0,0,0-1.34A12.29,12.29,0,0,1,329.7,114.9ZM312,46.2a12.3,12.3,0,1,1-12.27,13,3.24,3.24,0,0,0,0-1.34A12.29,12.29,0,0,1,312,46.2ZM221.6,22.3a12.3,12.3,0,1,1,12.3,12.3A12.29,12.29,0,0,1,221.6,22.3ZM329.7,208.8a12.3,12.3,0,1,1-12.27,13,3.24,3.24,0,0,0,0-1.34A12.28,12.28,0,0,1,329.7,208.8Zm-108.1,211a12.3,12.3,0,1,1,12.3,12.3A12.29,12.29,0,0,1,221.6,419.8Z"/><rect class="cls-1" width="442.1" height="442.1"/></g></g></svg>