<svg xmlns="http://www.w3.org/2000/svg" viewBox="0 0 83.03 83.04"><g id="Layer_2" data-name="Layer 2"><g id="Layer_1-2" data-name="Layer 1"><path d="M54.64,46.14l-3.13-4.79a24.35,24.35,0,0,0,1.73-4.16L58.83,36A1.51,1.51,0,0,0,60,34.55V25.47A1.51,1.51,0,0,0,58.83,24l-5.59-1.17a23.89,23.89,0,0,0-1.73-4.16l3.13-4.79a1.49,1.49,0,0,0-.2-1.88L48,5.58a1.51,1.51,0,0,0-1.88-.2L41.35,8.51a24,24,0,0,0-4.16-1.73L36,1.19A1.51,1.51,0,0,0,34.55,0H25.47A1.51,1.51,0,0,0,24,1.19L22.83,6.78a23.89,23.89,0,0,0-4.16,1.73L13.88,5.38a1.49,1.49,0,0,0-1.88.2L5.58,12a1.51,1.51,0,0,0-.2,1.88l3.13,4.79a24.35,24.35,0,0,0-1.73,4.16L1.19,24A1.51,1.51,0,0,0,0,25.47v9.08A1.51,1.51,0,0,0,1.19,36l5.59,1.17a23.89,23.89,0,0,0,1.73,4.16L5.38,46.14A1.49,1.49,0,0,0,5.58,48L12,54.44a1.51,1.51,0,0,0,1.88.2l4.79-3.13a24,24,0,0,0,4.16,1.73L24,58.83A1.51,1.51,0,0,0,25.47,60h9.08A1.51,1.51,0,0,0,36,58.83l1.17-5.59a23.89,23.89,0,0,0,4.16-1.73l4.79,3.13a1.49,1.49,0,0,0,1.88-.2L54.44,48A1.51,1.51,0,0,0,54.64,46.14ZM42.24,48.5a1.48,1.48,0,0,0-1.57,0,21.15,21.15,0,0,1-5.14,2.13,1.51,1.51,0,0,0-1.08,1.14L33.34,57H26.7l-1.11-5.28a1.49,1.49,0,0,0-1.08-1.14,21.55,21.55,0,0,1-5.14-2.13,1.5,1.5,0,0,0-1.57,0l-4.52,3-4.7-4.7,2.95-4.52a1.48,1.48,0,0,0,0-1.57,20.76,20.76,0,0,1-2.13-5.14A1.51,1.51,0,0,0,8.3,34.44L3,33.33V26.69L8.3,25.58A1.49,1.49,0,0,0,9.44,24.5a21.55,21.55,0,0,1,2.13-5.14,1.5,1.5,0,0,0,0-1.57L8.58,13.27l4.7-4.7,4.52,2.95a1.48,1.48,0,0,0,1.57,0,21.15,21.15,0,0,1,5.14-2.13,1.51,1.51,0,0,0,1.08-1.14L26.7,3h6.64l1.11,5.28a1.49,1.49,0,0,0,1.08,1.14,21.55,21.55,0,0,1,5.14,2.13,1.5,1.5,0,0,0,1.57,0l4.52-2.95,4.7,4.7-3,4.52a1.48,1.48,0,0,0,0,1.57A20.76,20.76,0,0,1,50.6,24.5a1.51,1.51,0,0,0,1.14,1.08L57,26.69v6.64l-5.28,1.11a1.49,1.49,0,0,0-1.14,1.08,21.55,21.55,0,0,1-2.13,5.14,1.5,1.5,0,0,0,0,1.57l3,4.52-4.7,4.7Z"/><path d="M82.91,61.79,81,57.13a1.5,1.5,0,0,0-1.66-.91l-2.73.49a14.29,14.29,0,0,0-1.28-1.3l.53-2.72A1.49,1.49,0,0,0,75,51l-4.63-2a1.5,1.5,0,0,0-1.82.53L67,51.87a13.83,13.83,0,0,0-1.82,0l-1.55-2.31A1.5,1.5,0,0,0,61.78,49l-4.66,1.89a1.5,1.5,0,0,0-.91,1.66l.49,2.73a14.29,14.29,0,0,0-1.3,1.28L52.68,56a1.5,1.5,0,0,0-1.67.89l-2,4.63a1.51,1.51,0,0,0,.52,1.82L51.85,65a13.83,13.83,0,0,0,0,1.82l-2.31,1.55A1.5,1.5,0,0,0,49,70.13l1.89,4.66a1.5,1.5,0,0,0,1.66.91l2.73-.49a14.29,14.29,0,0,0,1.28,1.3L56,79.23a1.49,1.49,0,0,0,.89,1.67l4.63,2a1.5,1.5,0,0,0,1.82-.52l1.59-2.28a13.83,13.83,0,0,0,1.82,0l1.55,2.31a1.52,1.52,0,0,0,1.25.66,1.55,1.55,0,0,0,.56-.11L74.78,81a1.5,1.5,0,0,0,.91-1.66l-.49-2.73a14.29,14.29,0,0,0,1.3-1.28l2.72.53A1.48,1.48,0,0,0,80.89,75l2-4.63a1.51,1.51,0,0,0-.52-1.82L80.05,67a13.83,13.83,0,0,0,0-1.82l2.31-1.55a1.5,1.5,0,0,0,.55-1.81Zm-5.27,1.36A1.5,1.5,0,0,0,77,64.58a11.26,11.26,0,0,1,0,2.9,1.5,1.5,0,0,0,.63,1.44l2,1.4-1,2.39-2.4-.47a1.49,1.49,0,0,0-1.47.55,11.11,11.11,0,0,1-2.07,2,1.5,1.5,0,0,0-.57,1.46l.43,2.41-2.4,1-1.37-2A1.49,1.49,0,0,0,67.5,77h-.19a11.34,11.34,0,0,1-2.91,0A1.48,1.48,0,0,0,63,77.6l-1.4,2-2.39-1,.47-2.4a1.49,1.49,0,0,0-.55-1.47,11.11,11.11,0,0,1-2-2.07,1.49,1.49,0,0,0-1.46-.57l-2.41.43-1-2.4,2-1.37a1.5,1.5,0,0,0,.65-1.43,11.34,11.34,0,0,1,0-2.91A1.5,1.5,0,0,0,54.28,63l-2-1.4,1-2.38,2.4.47a1.49,1.49,0,0,0,1.47-.55,11.11,11.11,0,0,1,2.07-2,1.5,1.5,0,0,0,.57-1.46l-.43-2.41,2.4-1,1.37,2a1.49,1.49,0,0,0,1.43.65,11.34,11.34,0,0,1,2.91,0,1.5,1.5,0,0,0,1.44-.63l1.4-2,2.39,1-.47,2.4a1.49,1.49,0,0,0,.55,1.47,11.11,11.11,0,0,1,2,2.07,1.49,1.49,0,0,0,1.46.57l2.41-.43,1,2.4-2,1.37Z"/><path d="M66,59.66A6.29,6.29,0,1,0,72.24,66,6.29,6.29,0,0,0,66,59.66Zm0,9.58A3.29,3.29,0,1,1,69.24,66,3.3,3.3,0,0,1,66,69.24Z"/><path d="M30,15.77A14.25,14.25,0,1,0,44.27,30,14.26,14.26,0,0,0,30,15.77Zm0,25.5A11.25,11.25,0,1,1,41.27,30,11.27,11.27,0,0,1,30,41.27Z"/><path d="M59.31,3.62a1.5,1.5,0,0,0-1.59,2.55,13.22,13.22,0,0,1,1.63,1.28c2.89,2.57,8.53,9.19,8.25,21.38l-1.35-.35-1.09-.28a1.5,1.5,0,0,0-1.85,1.7L65,40.11a1.5,1.5,0,0,0,1.07,1.19,1.45,1.45,0,0,0,.41.06,1.49,1.49,0,0,0,1.12-.51l7-8a1.5,1.5,0,0,0-.75-2.44l-3.33-.85C71.32,11.36,59.85,4,59.31,3.63ZM67.47,36.5l-.82-4.83,4.15,1.07-3.33,3.77Z"/><path d="M39,70.9a14,14,0,0,1-2,.57c-3.8.81-12.48,1.48-22.14-5.74l1.06-.89.87-.73a1.51,1.51,0,0,0,.53-1.33,1.54,1.54,0,0,0-.83-1.17l-9.3-4.54a1.5,1.5,0,0,0-2.12,1.68L7.43,69.1a1.52,1.52,0,0,0,1,1.09,1.61,1.61,0,0,0,.48.08,1.48,1.48,0,0,0,1-.35l2.64-2.21C20,73.55,27,75,32.13,75a22.35,22.35,0,0,0,8-1.33A1.5,1.5,0,0,0,39,70.9ZM8.68,61.15l4.41,2.15L9.81,66.05l-1.12-4.9Z"/></g></g></svg>