<svg xmlns="http://www.w3.org/2000/svg" viewBox="0 0 821.08 821.08"><defs><style>.cls-1{fill:none;}</style></defs><g id="Layer_2" data-name="Layer 2"><g id="Layer_1-2" data-name="Layer 1"><path d="M182.28,604.28c89.63-86.58,212.48-112,213-112.15s218.74-45.39,231.52-222.62l-63.07,27.81c-18.59,8.54-31.54-11.59-22.26-26.16L656.84,65.47a18.92,18.92,0,0,1,33.06.18L805.64,272.07c7.7,13.75-4.69,33.53-21.16,26l-65.39-28.36c-12.33,251.84-303.85,312.21-304.7,312.4-.67.13-232.11,48.14-232.11,239H90.17L90,196.57,36.22,220.42c-17,7.79-28.79-10.58-20.32-23.88L121.18,8.79A17.26,17.26,0,0,1,151.35,9L257,197.37c7,12.55-4.28,30.61-19.31,23.7l-55.4-24.6V604.28Z"/><rect class="cls-1" width="821.08" height="821.08"/></g></g></svg>