<svg xmlns="http://www.w3.org/2000/svg" viewBox="0 0 95.02 89.4"><g id="Layer_2" data-name="Layer 2"><g id="Layer_1-2" data-name="Layer 1"><path d="M79.2,41.5c.1,1,.2,2.1.2,3.2A34.6,34.6,0,1,1,44.8,10.1a33.47,33.47,0,0,1,14.5,3.2c2.9-2.4,5.9-4.6,8.9-6.7A44.32,44.32,0,0,0,44.8,0,44.7,44.7,0,1,0,89.5,44.7a42.75,42.75,0,0,0-1.8-12.4C84.7,35.4,81.9,38.4,79.2,41.5Z"/><path d="M91.1,6.9C78,11.2,61.3,22.7,45.9,42.4L36.8,32.3a3.64,3.64,0,0,0-5.4,0l-6.7,7.5a3.59,3.59,0,0,0,.2,5L45.5,64.6a3.67,3.67,0,0,0,5.7-.9C62.2,43.8,74,29,94,12A3,3,0,0,0,91.1,6.9Z"/></g></g></svg>