<svg xmlns="http://www.w3.org/2000/svg" viewBox="0 0 302.44 304.22"><defs><style>.cls-1{fill-rule:evenodd;}.cls-2{fill:none;}</style></defs><g id="Layer_2" data-name="Layer 2"><g id="Layer_1-2" data-name="Layer 1"><path class="cls-1" d="M17.44,33.22c40,20,84,54,126,94,55-41,113-76,159-94-57,39-103,74-144,109,54,54,102,115,128,162-53-59-99-106-145-147-45,40-83,81-122,129-3,4-17-2-19-18,27-41,73-86,123-126-38-32-77-60-122-88C-2.56,51.22,1.44,37.22,17.44,33.22Z"/><rect class="cls-2" width="302.44" height="302.44"/></g></g></svg>