<svg xmlns="http://www.w3.org/2000/svg" viewBox="0 0 81.41 81.41"><defs><style>.cls-1{fill:none;}</style></defs><g id="Layer_2" data-name="Layer 2"><g id="Layer_1-2" data-name="Layer 1"><path d="M43.6,39.3H32.08a2.88,2.88,0,1,1-.34-5.75H43.6a2.88,2.88,0,0,1,.34,5.75ZM56.6,15a3,3,0,0,1,0-6H70.79a3,3,0,0,1,3,3V25a3,3,0,0,1-6.06,0V15ZM25.47,29.84l-8.63,8.61a3,3,0,0,1-2.06.85A2.89,2.89,0,0,1,12,36.36a2.84,2.84,0,0,1,.83-2l6.6-6.58-6.67-6.59a2.89,2.89,0,0,1,0-4.07,2.93,2.93,0,0,1,4.09,0l8.63,8.63a2.87,2.87,0,0,1,0,4ZM72.39,2H9A8.62,8.62,0,0,0,.4,10.57V53.64A8.65,8.65,0,0,0,9,62.28H72.39A8.65,8.65,0,0,0,81,53.64V10.57A8.63,8.63,0,0,0,72.39,2Z"/><path d="M60.87,73.73h0a7.46,7.46,0,0,1-7.07-5c-.08-.23-.14-.45-.22-.68H27.84c-.06.23-.14.45-.22.68a7.47,7.47,0,0,1-7.07,5h0a2.86,2.86,0,0,0,0,5.72H60.87a2.86,2.86,0,0,0,0-5.72Z"/><rect class="cls-1" width="81.41" height="81.41"/></g></g></svg>