<svg xmlns="http://www.w3.org/2000/svg" viewBox="0 0 122.89 122.66"><defs><style>.cls-1{fill:none;}</style></defs><g id="Layer_2" data-name="Layer 2"><g id="Layer_1-2" data-name="Layer 1"><path d="M119.66,106.12l-1.33-1.53L112,110.92h0a1.83,1.83,0,0,1-2.57,0L103,104.66l-6.32,6.07a1.83,1.83,0,0,1-2.56.07l-6.7-6.19-6.08,6.26-.11.12a1.83,1.83,0,0,1-2.6,0l-6.38-6.38-6.58,6.27h0a1.83,1.83,0,0,1-2.56,0l-6.26-6.32-1.3,1.5a1.84,1.84,0,0,1-3.32-1.1V80.4a7.81,7.81,0,0,0,1.28.11,8.58,8.58,0,0,0,2.41-.31v20a1.83,1.83,0,0,1,2,.24.47.47,0,0,1,.1.1h0L64.42,107,71,100.73a1.83,1.83,0,0,1,2.56,0h0l6.33,6.33L86,100.77a1.84,1.84,0,0,1,2.56-.07h0l6.75,6.23,6.4-6.14a1.83,1.83,0,0,1,2.56,0l6.4,6.23,6.44-6.44a1.84,1.84,0,0,1,2.08-.36h0V50.34H85.27a9,9,0,0,0,.17-1.79,9.3,9.3,0,0,0-.23-1.89h35.84a1.84,1.84,0,0,1,1.84,1.84v56.42h0a1.83,1.83,0,0,1-3.22,1.2ZM70.13,90a1.49,1.49,0,1,1,0-3H83.48a1.49,1.49,0,0,1,0,3Zm0-18a1.49,1.49,0,1,1,0-3h39.59a1.49,1.49,0,1,1,0,3Zm0,9.07a1.49,1.49,0,1,1,0-3H104a1.49,1.49,0,1,1,0,3ZM62.7,28.25h0a5.06,5.06,0,0,1,.09,7.14l-1,1,8.43,8.28L48.86,65.26l-8.21-8.5-32,32a5.06,5.06,0,0,1-7.14-.09h0a5.06,5.06,0,0,1-.09-7.14L33.54,49.41l-6.43-6.68L47.25,22.19l7.21,7.07,1.11-1.11a5.08,5.08,0,0,1,7.13.1ZM46.38,12.35h0A4,4,0,0,1,46.45,18L23,41.53a4,4,0,0,1-5.68-.07h0a4,4,0,0,1-.07-5.68l23.5-23.5a4,4,0,0,1,5.68.07Zm33.4,33.4h0a4,4,0,0,1,.07,5.68l-23.5,23.5a4,4,0,0,1-5.68-.07h0a4,4,0,0,1-.07-5.68l23.5-23.5a4,4,0,0,1,5.68.07Z"/><rect class="cls-1" x="0.11" width="122.66" height="122.66"/></g></g></svg>