<svg xmlns="http://www.w3.org/2000/svg" viewBox="0 0 41.73 41.73"><defs><style>.cls-1{fill:none;}</style></defs><g id="Layer_2" data-name="Layer 2"><g id="Layer_1-2" data-name="Layer 1"><path d="M35.42,6.76H30V5.85A5.45,5.45,0,0,0,24.5.39H17.22a5.46,5.46,0,0,0-5.46,5.46v.91H6.31a1.82,1.82,0,1,0,0,3.64H35.42a1.82,1.82,0,0,0,0-3.64Zm-9.1,0H15.4V5.85A1.83,1.83,0,0,1,17.22,4H24.5a1.82,1.82,0,0,1,1.82,1.82Z"/><path d="M33.65,13.36a1.82,1.82,0,0,0-1.94,1.69l-1.5,21a1.82,1.82,0,0,1-1.82,1.69H13.33A1.82,1.82,0,0,1,11.52,36l-1.5-21a1.82,1.82,0,1,0-3.63.26l1.5,21a5.46,5.46,0,0,0,5.44,5.07H28.39a5.46,5.46,0,0,0,5.45-5.07l1.5-21A1.83,1.83,0,0,0,33.65,13.36Z"/><rect class="cls-1" width="41.73" height="41.73"/></g></g></svg>