<svg xmlns="http://www.w3.org/2000/svg" viewBox="0 0 91.87 91.87"><defs><style>.cls-1{fill:none;}</style></defs><g id="Layer_2" data-name="Layer 2"><g id="Layer_1-2" data-name="Layer 1"><path d="M86.81,54.45a4.52,4.52,0,0,0-1.85.39l-5-8.9L85,37a4.87,4.87,0,0,0,1.85.39,4.69,4.69,0,0,0,0-9.38,4.59,4.59,0,0,0-3.12,1.24L60.55,8.73A4.18,4.18,0,1,0,53.67,4,4.32,4.32,0,0,0,53,5.84H38.15a4.18,4.18,0,1,0-7.54,2.93L8.19,29.25a4.68,4.68,0,0,0-6.21,7,4.74,4.74,0,0,0,3.13,1.18,4.7,4.7,0,0,0,1.45-.26l1.87,3.36-1,1.36a4.54,4.54,0,0,0-2.33-.64,4.69,4.69,0,0,0,0,9.38,4.69,4.69,0,0,0,2.34-.69l1.21,1.65L6.91,54.77a4.46,4.46,0,0,0-1.8-.37,4.69,4.69,0,1,0,3.08,8.18L30.61,83.11A4.18,4.18,0,0,0,37.39,88a4.12,4.12,0,0,0,.76-2H53a4.18,4.18,0,0,0,8.3-1,4.13,4.13,0,0,0-.72-1.88L83.69,62.59a4.63,4.63,0,0,0,3.12,1.24,4.69,4.69,0,0,0,0-9.38Zm-3.47-18.6L77.76,42l-2.13-3.79,7.14-3.17A5.28,5.28,0,0,0,83.34,35.85ZM82.15,59.67,70.82,62.18l4.32-7.68,7.23,3.21a4.81,4.81,0,0,0-.25,1.42A4.89,4.89,0,0,0,82.15,59.67Zm-12.64,2.8-8.46,1.88A4,4,0,0,0,60.26,63L70,52.2l4.26,1.89Zm-32.68,20-.3-.25,5.31-9.1,3,2.53ZM9.53,57.67l2.64-1.2L15.47,61,9.76,59.7a5,5,0,0,0,0-.55A4.33,4.33,0,0,0,9.53,57.67ZM13.1,56l3.15-1.44,4.18,7.52L17,61.33ZM9.64,33.94a.42.42,0,0,1,.06-.26,4.58,4.58,0,0,0,.1-.89,4.51,4.51,0,0,0,0-.52h0L15.51,31l-3.3,4.53L9.56,34.22A2,2,0,0,1,9.64,33.94ZM17,30.55l3.7-.84-4.2,7.67L13.1,35.84ZM41.73,13.61,39.5,14.75l-3-5.08.3-.25Zm-6-3.43,2.93,5-1.29.66-1.65-5.67Zm3.43,5.89,2,3.36-2.18,1.86-1.3-4.46Zm2.47,4.24,3.11,5.33H40.16l-1-3.29ZM54.29,9.42l.3.25-5.31,9.1-3-2.53ZM48.77,19.65l-3.21,5.5-3.21-5.5,3.21-2.71Zm4.21,7a4.26,4.26,0,0,0,.66,1.82l-3.27,2.8,1.35-4.62ZM51.71,65.24l-1.35-4.63,3.27,2.8A4.22,4.22,0,0,0,53,65.24ZM39.2,69.53l1-3.29H41l-1.4,3.61Zm0,1.31-1.49,3.82,1.19-4.08Zm.22-44.2,1.35,4.63-3.27-2.8a4.17,4.17,0,0,0,.66-1.83ZM54.3,29.22l.3.25-3.26,5.58-1.28-2.2Zm-16.14,36a4.08,4.08,0,0,0-.66-1.83l3.27-2.8-1.36,4.65Zm-1.32-36,4.23,3.63-1.28,2.2-3.25-5.58Zm10.47,9-1.74,6-1.74-6,1.74-1.49Zm-1-2.15,2.13-1.83-.85,2.93ZM44.79,55.84l-2.13,1.82.85-2.92Zm-1-2.15.16-.54.39,1Zm1.74.77-1.12-2.89,1.12-3.85,1.12,3.85ZM44,49.72l-.1.33V50Zm-.6-1-.9-2.32h2.25Zm3.84,1,.14.24v.1Zm-.75-3.27H48.7l-.9,2.32Zm-2.92-9.3-.85-2.92,2.13,1.83Zm-2-3.14,1.12,3.85-.84.72L40.36,36ZM43,38.94l1,3.27-1.59-2.72Zm1.7,6.54H42.05l-1.67-4.3,1.2-1Zm-3.7,0H38.15a4.08,4.08,0,0,0-.66-1.83l2.08-1.78Zm-2.83,1h3.22l1.33,3.42-1.12,1.91-4.09-3.5a4.2,4.2,0,0,0,.68-1.83Zm5,4.61.22.57L43,52.94l-.63-.54Zm-.48,3-1.09,3.83-1.19-2,1.47-2.53Zm1.69,3.48-1.18,3.1-.81-1.39Zm1.19-.29,1.76,4.51-1.75,3-1.76-3Zm1.19.29,2,1.73L48,60.63Zm-.42-1.68,1.28-1.1.85,2.92Zm.42-1.68.39-1,.16.54Zm1-2.54.22-.57.81,1.38-.64.54Zm.69-1.76,1.33-3.42H53a4.26,4.26,0,0,0,.66,1.82l-4.09,3.51ZM53,45.44H50.14l1.4-3.61,2.08,1.78A4.08,4.08,0,0,0,53,45.44Zm-3.9,0H46.43l3.11-5.33,1.2,1Zm-1.89-3.27,1-3.26.63.54Zm1.26-4.32L49.55,34l1.19,2-1.48,2.53Zm-2.87-2.47-3.21-2.75,3.21-5.5,3.21,5.5Zm-3.7-3.9-1.41-4.84h4.24ZM39.21,36l-.49.83-1.94-5Zm.58,1,1.28,2.2L40,40.15l-.81-2.09Zm-.59,3.81-2.36,2-.3-.25,2-3.44ZM36.84,49l4.24,3.63-1.28,2.2-3.26-5.58Zm4.24,10-4.24,3.63-.3-.25,3.26-5.58Zm-2.93,7.21h1l-.75,2.58-.87-.75A4.16,4.16,0,0,0,38.15,66.24Zm2.3-1,1.41-4.84.83,1.43-1.32,3.41Zm2.89-2.3,1.35,2.31H42.44Zm4.44,0,.9,2.31H46.43Zm.64-1.1.83-1.43,1.41,4.84h-.92Zm5.87.84-4.24-3.63,1.28-2.2,3.26,5.58Zm-4.73-4.8L48.44,54l.84-.72,1.48,2.53Zm.49-5.23L54.29,49l.3.25-3.26,5.58Zm4.24-9.79-2.33-2,.65-1.67,2,3.44Zm-3.16-2.71-1.07-.92L51.34,37l.6,1ZM52,36l2.43-4.17-2,5Zm-2.7-4.55-2.83-4.85h4.24ZM39.12,25.64h-1a4.08,4.08,0,0,0-.66-1.83l.87-.75Zm-8.21,3.3L21.49,39.67l-3.81-1.73,13.19-9Zm.74.67a4.1,4.1,0,0,0,3.4.59l3,7.79-2.4,4.12a4.16,4.16,0,0,0-5.22,1.67l-8-3.66ZM30,44.68a3.81,3.81,0,0,0-.17.76H17.77l4-4.55Zm-.17,1.76a4.15,4.15,0,0,0,.17.76l-8.29,3.74-4-4.55Zm.57,1.68a4.17,4.17,0,0,0,5.23,1.67l3.54,6.06-3.54,6.09a4.14,4.14,0,0,0-4,.39L22.44,51.77Zm.46,14.82h0l-13.22-9,3.81-1.74Zm-.59.86a4.09,4.09,0,0,0-.23.52l-8.35-1.91-4-7.25Zm-.45,1.49a3.08,3.08,0,0,0,0,.43,4.18,4.18,0,0,0,7,3.08l1.23,1-3.4,11.57a3.81,3.81,0,0,0-2.26.25l-10-18.07ZM40,71.53l1.07.92L36.74,79.8Zm.38-1L42,66.23h2.64l-3.11,5.33ZM49,66.23l1.67,4.3-1.2,1-3.07-5.29Zm2.06,5.29,3.22,8.27L50,72.44Zm.8-.69.3-.25,1.19,4.08Zm-.38-1-1.4-3.61H51l1,3.29ZM52,66.24h1a4.17,4.17,0,0,0,.66,1.83l-.88.75Zm7.51-3.92a4.13,4.13,0,0,0-4-.38L52,55.84l3.53-6.06a4.17,4.17,0,0,0,5.25-1.7L69,51.78Zm1.58-15.15a3.81,3.81,0,0,0,0-2.45l8.61-3.83,4.6,5L69.71,51Zm-.4-3.37a4.14,4.14,0,0,0-5.25-1.7L53,37.94l3-7.79a4,4,0,0,0,3.44-.62L69,40.1ZM53,25.64H52l.75-2.57.87.75A4.2,4.2,0,0,0,53,25.64Zm-2,0H46.43l3.11-5.33,2.38,2Zm-.91-6.21,5.4-9.25h0L52.23,21.3Zm-4.49-3.85-2-1.76,10.1-5.14Zm-.77.66-3,2.53L40,15.61l2.55-1.3ZM34,10.53a5.05,5.05,0,0,0,.68-.07l1.71,5.86L26.3,21.46l6.16-11.24A4.33,4.33,0,0,0,34,10.53ZM25.45,23,36.68,17.3,38.05,22l-1.23,1a4.17,4.17,0,0,0-7,3.08,3.08,3.08,0,0,0,0,.43l-7.27,1.66Zm4.63,4.53c.07.17.14.35.23.52l-12.2,8.36,3.84-7ZM16.89,38.67l3.92,1.79-4.14,4.73-2.06-2.35Zm-3,3.36-.83-.94,2.15-1.47Zm1.67,3.41H13.18l.92-1.67Zm0,1L13.9,48.33l-1-1.89Zm1.1.26,4.14,4.72-4.08,1.86-.1-.07-2.2-4Zm-1.88,5.24-1.69-1.16.64-.73Zm.88,1.82L12.5,55.2l-1.5-2,1.42-1.62Zm5.42,9.53,8.56,15.4L17.86,62.56Zm21.27,8.93,3.21-5.5,3.21,5.5-3.21,2.72Zm6.93.88,5.31,9.1-.3.25-8-6.82Zm7.83,8.24a3.14,3.14,0,0,0-.68.07L53.06,69.87l1.23-1.05a4.17,4.17,0,0,0,5.89-.24,4.11,4.11,0,0,0,1.11-2.84,2.8,2.8,0,0,0,0-.41l7.59-1.69-10.14,18a4,4,0,0,0-1.63-.29ZM70.67,51.42,75,46.69l2.13,2.37-2.34,4.17Zm4.93-5.48,2-2.19,1.21,2.19-1.23,2.19ZM75,45.19,70.7,40.46l4-1.8L77,42.83Zm7.28-11.58a.42.42,0,0,0,.06.26c.06.09,0,.21.07.31l-7.2,3.2L70.85,29.7l11.33,2.52a4.68,4.68,0,0,0,0,.53,6.24,6.24,0,0,0,0,.86Zm-8,4.17L70,39.68,60.25,28.89A4,4,0,0,0,61,27.53l8.46,1.88Zm-13-11.24a2.8,2.8,0,0,0,0-.41,4.17,4.17,0,0,0-7-3.08l-1.18-1,3.37-11.55a4,4,0,0,0,2.28-.25l10.14,18ZM53.19,7.77l-10.5,5.35-5.2-4.45a4.17,4.17,0,0,0,.66-1.83H53A4.36,4.36,0,0,0,53.19,7.77ZM24.71,22.29,22,23.68l7.91-10.84Zm-.85,1.55-2.57,4.69-3.44.79,2.81-3.85Zm-7.49,5.82L9.54,31.22v-.08l9.18-4.67ZM9.12,35.12l2.45,1.12-1.25,1.7-1.79-2A4.59,4.59,0,0,0,9.12,35.12Zm3.38,1.54,3.17,1.45-3.24,2.22L11,38.71Zm-.91,4.28-1.31.9-.66-1.19.78-1.07Zm.66.76,1.14,1.24-1.22,2.24-1.41-2.5Zm-1.09,3.74H9.76a4.44,4.44,0,0,0-.53-1.71l.73-.49Zm-1.39,1H11.5l-1.3,2.37-1-.66a4.54,4.54,0,0,0,.56-1.71Zm2.41.83,1,1.86-1,1.09L11,49.38Zm-.59,3.67-1.19,1.4-.57-.78.71-1.3Zm0,4.66L9.14,56.72a4.05,4.05,0,0,0-.58-.78l1.79-2Zm-2,5,6.84,1.56,14.3,19.59L8.88,61.94a4.58,4.58,0,0,0,.66-1.28Zm28,22.55,8.07-6.91,8.07,6.92A4.11,4.11,0,0,0,53,85H38.15a4.08,4.08,0,0,0-.66-1.83Zm22.09-1,10.48-18.8,12.22-2.71A4.71,4.71,0,0,0,83,61.86L59.88,82.41Zm23.2-25.37-7.14-3.17,2-3.77L83.33,56a4.34,4.34,0,0,0-.56.77Zm1.31-1.48h0l-5.91-6.36,1.1-2ZM78.28,42.94l5.78-6.43h0l-4.68,8.43ZM90.5,32.74a3.69,3.69,0,0,1-3.69,3.69h0A3.74,3.74,0,0,1,85,35.94a3.65,3.65,0,0,1-.65-.46,3.69,3.69,0,0,1-.91-1.24,3.74,3.74,0,0,1-.32-1.5,3.1,3.1,0,0,1,.1-.81,3.72,3.72,0,0,1,3.59-2.88A3.68,3.68,0,0,1,90.5,32.7ZM83,30.05a4.52,4.52,0,0,0-.41.71l-.07.17c0,.1-.09.21-.12.32l-12.2-2.72L59.58,9.71l.3-.24L83,30Zm-52.32-20L20,24.68,9.07,30.25,9,30V30ZM1.42,32.74a3.68,3.68,0,0,1,6.41-2.48,3.31,3.31,0,0,1,.59.88h0a2,2,0,0,1,.16.36,2.77,2.77,0,0,1,.12.41h0a3.18,3.18,0,0,1,.1.82,3.68,3.68,0,0,1-1.27,2.78,3.58,3.58,0,0,1-.93.59,3.8,3.8,0,0,1-1.49.32A3.7,3.7,0,0,1,1.42,32.74Zm6.06,4,.31-.2,1.93,2.2-.64.87Zm2,5.59-.82.61a4.07,4.07,0,0,0-.41-.42l.72-1ZM1.42,45.94a3.69,3.69,0,0,1,3.69-3.69A3.54,3.54,0,0,1,7.28,43a3.11,3.11,0,0,1,.87.9,3.64,3.64,0,0,1,0,4.16,3.5,3.5,0,0,1-.87.89,3.63,3.63,0,0,1-2.16.71A3.7,3.7,0,0,1,1.42,46ZM8.25,49.4a4.36,4.36,0,0,0,.41-.46l1.05.72-.53,1Zm1.47,3.71L7.8,55.3h0l1.51-2.76Zm-8.3,6a3.69,3.69,0,0,1,3.69-3.69,3.48,3.48,0,0,1,1.78.46,2.84,2.84,0,0,1,.64.45A3.63,3.63,0,0,1,8.8,59.1a3.69,3.69,0,0,1-7.38,0ZM86.81,62.8a3.67,3.67,0,0,1-2.75-1.24,3.62,3.62,0,0,1-.85-1.62,3.46,3.46,0,0,1-.09-.78,3.67,3.67,0,0,1,.32-1.5,3.5,3.5,0,0,1,.91-1.24,3.07,3.07,0,0,1,.61-.48h0a3.57,3.57,0,0,1,1.8-.48,3.69,3.69,0,1,1,0,7.38Z"/><rect class="cls-1" width="91.87" height="91.87"/></g></g></svg>