<svg xmlns="http://www.w3.org/2000/svg" viewBox="0 0 60.88 60.88"><g id="Layer_2" data-name="Layer 2"><g id="Layer_1-2" data-name="Layer 1"><path d="M60.3.58a2,2,0,0,0-2.82,0L48.26,9.81a11.37,11.37,0,0,0-14.59,1.27L28.05,16.7a2,2,0,0,0,0,2.82L41.36,32.83a2,2,0,0,0,2.82,0l5.62-5.62a11.42,11.42,0,0,0,1.27-14.59L60.3,3.4A2,2,0,0,0,60.3.58ZM47,24.39,42.77,28.6,32.28,18.11l4.21-4.21A7.42,7.42,0,1,1,47,24.39Z"/><path d="M31.65,32.67,27.3,37l-3.44-3.44,4.35-4.35a2,2,0,0,0-2.81-2.81l-4.35,4.35-2.12-2.12a2,2,0,0,0-2.82,0l-5.62,5.62A11.41,11.41,0,0,0,9.22,48.85L.58,57.48a2,2,0,0,0,0,2.82,2,2,0,0,0,2.82,0L12,51.67a11.39,11.39,0,0,0,14.59-1.28l5.62-5.62a2,2,0,0,0,0-2.81l-2.12-2.12,4.35-4.36a2,2,0,0,0-2.82-2.81ZM23.8,47.57A7.42,7.42,0,1,1,13.31,37.08l4.21-4.21L28,43.36Z"/></g></g></svg>