<svg xmlns="http://www.w3.org/2000/svg" viewBox="0 0 61.89 64.1"><g id="Layer_2" data-name="Layer 2"><g id="Layer_1-2" data-name="Layer 1"><rect x="26.4" y="26.8" width="22.5" height="10.5" rx="1"/><path d="M48,44.1H27.3a1,1,0,0,0-1,1v10a1,1,0,0,0,1,1H48a1,1,0,0,0,1-1v-10A1,1,0,0,0,48,44.1Zm-1,10H28.3v-8H47Z"/><path d="M48,8.1H27.3a1,1,0,0,0-1,1v10a1,1,0,0,0,1,1H48a1,1,0,0,0,1-1V9.1A1,1,0,0,0,48,8.1Zm-1,10H28.3v-8H47Z"/><rect x="0.1" y="35.8" width="22.5" height="10.5" rx="1"/><path d="M21.7,17.1H1a1,1,0,0,0-1,1v10a1,1,0,0,0,1,1H21.7a1,1,0,0,0,1-1v-10A1,1,0,0,0,21.7,17.1Zm-1,10H2v-8H20.7Z"/><path d="M61.67,31.27a1.06,1.06,0,0,0-.15-.15l-2-1.61A4.15,4.15,0,0,1,57.9,26.2V7a7,7,0,0,0-7-7,1,1,0,0,0,0,2,5,5,0,0,1,5,5V26.2a6.12,6.12,0,0,0,2.37,4.88l1,.82-1,.81A6.11,6.11,0,0,0,55.9,37.6V57.1a5,5,0,0,1-5,5,1,1,0,0,0,0,2,7,7,0,0,0,7-7V37.6a4.14,4.14,0,0,1,1.62-3.32l2-1.6A1,1,0,0,0,61.67,31.27Z"/></g></g></svg>