<svg xmlns="http://www.w3.org/2000/svg" viewBox="0 0 354 354"><defs><style>.cls-1{fill-rule:evenodd;}</style></defs><g id="Layer_2" data-name="Layer 2"><g id="Layer_1-2" data-name="Layer 1"><path class="cls-1" d="M212.93,10.83a12.62,12.62,0,0,0-10.3-9,176.81,176.81,0,0,0-51.26,0,12.62,12.62,0,0,0-10.3,9l-5.74,19.62a153,153,0,0,0-32.49,13.47L84.91,34.1A12.65,12.65,0,0,0,71.28,35,177.92,177.92,0,0,0,35,71.28a12.65,12.65,0,0,0-.93,13.63l9.82,17.94a152.58,152.58,0,0,0-13.47,32.49l-19.62,5.73a12.62,12.62,0,0,0-9,10.3,176.81,176.81,0,0,0,0,51.26,12.62,12.62,0,0,0,9,10.3l19.62,5.74a153,153,0,0,0,13.47,32.49L34.1,269.09A12.65,12.65,0,0,0,35,282.72,177.92,177.92,0,0,0,71.28,319a12.65,12.65,0,0,0,13.63.93l17.94-9.82a152.58,152.58,0,0,0,32.49,13.47s5.73,19.62,5.73,19.62a12.62,12.62,0,0,0,10.3,9,176.81,176.81,0,0,0,51.26,0,12.62,12.62,0,0,0,10.3-9l5.74-19.62a153,153,0,0,0,32.49-13.47l17.93,9.82a12.65,12.65,0,0,0,13.63-.93A177.92,177.92,0,0,0,319,282.72a12.65,12.65,0,0,0,.93-13.63l-9.82-17.94a152.58,152.58,0,0,0,13.47-32.49l19.62-5.73a12.62,12.62,0,0,0,9-10.3,176.81,176.81,0,0,0,0-51.26,12.62,12.62,0,0,0-9-10.3l-19.62-5.74a153,153,0,0,0-13.47-32.49l9.82-17.93A12.65,12.65,0,0,0,319,71.28,177.92,177.92,0,0,0,282.72,35a12.65,12.65,0,0,0-13.63-.93l-17.94,9.82a152.58,152.58,0,0,0-32.49-13.47S212.93,10.83,212.93,10.83ZM177,159.12l-44.79-44.79a12.64,12.64,0,0,0-17.88,17.88L159.12,177l-44.79,44.79a12.64,12.64,0,0,0,17.88,17.88L177,194.88l44.79,44.79a12.64,12.64,0,0,0,17.88-17.88L194.88,177l44.79-44.79a12.64,12.64,0,0,0-17.88-17.88Z"/></g></g></svg>