<svg xmlns="http://www.w3.org/2000/svg" viewBox="0 0 62.91 62.91"><defs><style>.cls-1{fill:none;}</style></defs><g id="Layer_2" data-name="Layer 2"><g id="Layer_1-2" data-name="Layer 1"><path d="M7.43,54.42a2.5,2.5,0,0,0,2.49,2.49H50.64v-5H9.92A2.5,2.5,0,0,0,7.43,54.42Z"/><path d="M.84,54.42h0a8.37,8.37,0,0,0,8.38,8.37H47.31a3.33,3.33,0,0,0,3.33-3.33v-.6H9.92a4.44,4.44,0,1,1,0-8.88H50.64V46H9.22A8.39,8.39,0,0,0,.84,54.42Z"/><path d="M50.64,17.19a11.43,11.43,0,0,0-8.41,19.17L42,40.51a.76.76,0,0,0,1,.75l4.29-1.69a11.37,11.37,0,0,0,3.75.48A11.54,11.54,0,0,0,62.06,29,11.42,11.42,0,0,0,50.64,17.19Zm3,14.8h-9a1,1,0,1,1,0-2h9a1,1,0,1,1,0,2Zm3.62-4.35H44.64a1,1,0,0,1,0-2H57.27a1,1,0,0,1,0,2Z"/><path d="M9.22,44.09H11V.12H9.22A8.38,8.38,0,0,0,.84,8.5V48.41A10.32,10.32,0,0,1,9.22,44.09Z"/><path d="M47.45,41.63l-3.69,1.45a2.61,2.61,0,0,1-1,.2,2.7,2.7,0,0,1-2-.86,2.72,2.72,0,0,1-.74-2l.19-3.36a13.39,13.39,0,0,1,10.4-21.8h0V8.5A8.38,8.38,0,0,0,42.28.12H12.94v44h37.7V42h0A13.44,13.44,0,0,1,47.45,41.63Zm-20-4.05H18.56a1,1,0,0,1,0-2h8.93a1,1,0,1,1,0,2ZM35,32.49H18.56a1,1,0,0,1,0-2H35a1,1,0,0,1,0,2Zm0-5.08H18.56a1,1,0,0,1,0-2H35a1,1,0,1,1,0,2Zm0-5.1H18.56a1,1,0,0,1,0-2H35a1,1,0,0,1,0,2Z"/><rect class="cls-1" width="62.91" height="62.91"/></g></g></svg>