<svg xmlns="http://www.w3.org/2000/svg" viewBox="0 0 90.18 90.18"><defs><style>.cls-1{fill:none;}</style></defs><g id="Layer_2" data-name="Layer 2"><g id="Layer_1-2" data-name="Layer 1"><path d="M76.54,7.26l1.64,1.87.9,1c.36.44.83,1.08,1.29,1.68a34.36,34.36,0,0,1,2.91,4.28c.47.79,1,1.62,1.46,2.5s.88,1.88,1.35,2.88q.33.75.69,1.53c.21.54.39,1.09.59,1.65.37,1.13.81,2.28,1.14,3.51A48.57,48.57,0,0,1,90,44.93l-.18,2c-.11.78-.27,1.67-.42,2.5s-.32,1.7-.48,2.57-.45,1.57-.68,2.37-.45,1.59-.72,2.39-.63,1.56-1,2.35a38.75,38.75,0,0,1-2.23,4.65l-.61,1.15L83,66,81.57,68.2c-.48.75-1.09,1.41-1.63,2.12s-1.11,1.42-1.73,2.08-1.26,1.31-1.9,2l-1,1-1,.9L72.18,78c-.73.58-1.51,1.08-2.27,1.62a43.43,43.43,0,0,1-4.82,2.91,25,25,0,0,1-2.57,1.21c-.88.37-1.73.8-2.64,1.1a45.63,45.63,0,0,1-5.5,1.62c-.94.2-1.88.42-2.82.6l-2.87.33-1.44.17c-.48,0-1,0-1.45,0l-2.89,0H42l-.64-.06-1.28-.12-1.28-.12-.66-.06-.75-.13a41.06,41.06,0,0,1-5.85-1.31c-.92-.29-1.86-.5-2.75-.88l-2.68-1.09a23.77,23.77,0,0,1-2.59-1.26c-.84-.46-1.71-.85-2.51-1.38a45,45,0,0,1-4.66-3.3,43.72,43.72,0,0,1-7.81-8,42.92,42.92,0,0,1-6.3-39.33A41.56,41.56,0,0,1,22.62,6.91c.94-.52,1.93-.87,2.83-1.29.46-.19.91-.4,1.36-.57l1.35-.44c.88-.27,1.71-.57,2.53-.79l2.36-.51a29.9,29.9,0,0,1,4-.58c.58-.06,1.12-.16,1.62-.16h1.36l2.49,0-2.48.23-1.34.12c-.49,0-1,.19-1.59.29a29,29,0,0,0-3.9.89L31,4.75c-.78.28-1.57.63-2.4,1l-1.26.52c-.42.2-.84.44-1.27.66-.84.48-1.75.88-2.61,1.46a38.34,38.34,0,0,0-10.2,9.11,37.48,37.48,0,0,0-7,14.25A38.64,38.64,0,0,0,6,49.09,36.84,36.84,0,0,0,25.16,73.72c.67.37,1.41.62,2.11.94a16.33,16.33,0,0,0,2.14.83l2.19.69c.72.25,1.49.33,2.23.51a31.24,31.24,0,0,0,4.29.62l.52.06c.18,0,.42,0,.63,0h3.28l.28,0,2.22-.22c.37,0,.74-.06,1.11-.11l1.09-.22,2.15-.43c.71-.2,1.4-.43,2.09-.64a33.2,33.2,0,0,0,4-1.55c.65-.26,1.25-.66,1.88-1a17.35,17.35,0,0,0,1.83-1,31.69,31.69,0,0,0,3.36-2.44c.52-.45,1.07-.85,1.57-1.31L65.59,67l.71-.7.63-.78L68.18,64c.41-.51.74-1.08,1.11-1.61s.75-1,1-1.6l.9-1.66.45-.82.35-.85a25.36,25.36,0,0,0,1.28-3.38c.18-.57.36-1.13.53-1.68s.23-1.14.35-1.7.23-1.1.34-1.65.09-1,.14-1.47.11-.92.16-1.45,0-1.32,0-2A32.7,32.7,0,0,0,72.91,33c-.28-.78-.66-1.51-1-2.22l-.46-1c-.19-.33-.37-.65-.56-1l-1-1.79-1.09-1.53A20.25,20.25,0,0,0,67,23.23c-.28-.31-.44-.56-.74-.87l-1-.94L63.53,19.7A9,9,0,1,1,76,6.73C76.21,6.9,76.38,7.09,76.54,7.26Z"/><rect class="cls-1" width="90.18" height="90.18"/></g></g></svg>