<svg xmlns="http://www.w3.org/2000/svg" viewBox="0 0 85 85"><defs><style>.cls-1{fill:none;}</style></defs><g id="Layer_2" data-name="Layer 2"><g id="Layer_1-2" data-name="Layer 1"><path d="M52.39,43.15,29.5,66a5.94,5.94,0,0,1-8.29.13,6.14,6.14,0,0,1,.06-8.72l9-9h-18a6,6,0,1,1,0-11.9H30.36l-9-9a6.07,6.07,0,0,1-.65-8A6,6,0,0,1,29.59,19l22.8,22.8A1,1,0,0,1,52.39,43.15Zm23.74-7L41.77,1.74a6,6,0,1,0-8.41,8.42L65.61,42.41,33.18,74.84a6,6,0,0,0,8.41,8.42L76.13,48.73a8.94,8.94,0,0,0,0-12.63Z"/><rect class="cls-1" width="85" height="85"/></g></g></svg>