<svg xmlns="http://www.w3.org/2000/svg" viewBox="0 0 95.1 94.8"><defs><style>.cls-1{fill:none;}</style></defs><g id="Layer_2" data-name="Layer 2"><g id="Layer_1-2" data-name="Layer 1"><path d="M88.7,2.1H63.6a6.3,6.3,0,0,0,0,12.6h10L47.5,40.8,21.4,14.7h9.9a6.3,6.3,0,1,0,0-12.6H6.3A6.27,6.27,0,0,0,0,8.4V33.5a6.3,6.3,0,0,0,12.6,0v-10L41.3,52.2V86.4a6.3,6.3,0,1,0,12.6,0V52.2L82.5,23.6v10a6.3,6.3,0,1,0,12.6,0V8.4A6.42,6.42,0,0,0,88.7,2.1Z"/><rect class="cls-1" x="0.15" width="94.8" height="94.8"/></g></g></svg>