<svg xmlns="http://www.w3.org/2000/svg" viewBox="0 0 29.99 29.99"><defs><style>.cls-1{fill:none;}</style></defs><g id="Layer_2" data-name="Layer 2"><g id="Layer_1-2" data-name="Layer 1"><path d="M26,25v4a1,1,0,0,1-1,1H5a1,1,0,0,1-1-1V25a1,1,0,0,1,2,0v3H24V25a1,1,0,0,1,2,0ZM11.7,5.7,14,3.4V25a1,1,0,0,0,2,0V3.4l2.3,2.29A1,1,0,0,0,19,6a1,1,0,0,0,.71-1.7l-4-4,0,0a1.15,1.15,0,0,0-.29-.2h0A.85.85,0,0,0,15,0h-.1a1,1,0,0,0-.25,0l-.09,0a1,1,0,0,0-.3.2l-4,4a1,1,0,0,0,0,1.41A1,1,0,0,0,11.7,5.7ZM26,10a1,1,0,0,0-.08-.38.85.85,0,0,0-.21-.32,1.31,1.31,0,0,0-.32-.22A1,1,0,0,0,25,9H21a1,1,0,0,0,0,2h1.6l-2.3,2.29A1,1,0,0,0,20,14v8a1,1,0,0,0,2,0V14.4l2-2V14a1,1,0,0,0,2,0V10ZM5,15a1,1,0,0,0,1-1V12.4l2,2V22a1,1,0,0,0,2,0V14a1,1,0,0,0-.29-.71L7.4,11H9A1,1,0,0,0,9,9H5a1,1,0,0,0-.38.08.87.87,0,0,0-.32.22,1.31,1.31,0,0,0-.22.32A1.12,1.12,0,0,0,4,10H4v4A1,1,0,0,0,5,15Z"/><rect class="cls-1" width="29.99" height="29.99"/></g></g></svg>