<svg xmlns="http://www.w3.org/2000/svg" viewBox="0 0 480 480"><defs><style>.cls-1{fill-rule:evenodd;}.cls-2{fill:none;}</style></defs><g id="Layer_2" data-name="Layer 2"><g id="Layer_1-2" data-name="Layer 1"><path class="cls-1" d="M347.4,248.67a85.92,85.92,0,1,1-85.92,85.92A86,86,0,0,1,347.4,248.67ZM393,295.88A59.71,59.71,0,1,1,374,281a5,5,0,1,0,4.46-8.95,69.93,69.93,0,1,0,22.15,17.36,5,5,0,1,0-7.62,6.47Zm-45.6,4.86a33.85,33.85,0,1,0,33.84,33.85A33.87,33.87,0,0,0,347.4,300.74Zm0,10a23.85,23.85,0,1,1-23.85,23.85A23.86,23.86,0,0,1,347.4,310.74Zm-89.91,4.66H215.84a9.6,9.6,0,0,0-9.59,9.59v19.19a9.6,9.6,0,0,0,9.59,9.6h41.65a92.61,92.61,0,0,1,0-38.38Zm204.36,1.16v12.92a5,5,0,0,1-10,0V318.06l-13.38,4a92.41,92.41,0,0,1,0,25l18.38,5.52H471a9,9,0,0,0,9-9v-18a9,9,0,0,0-9-9ZM200.25,325H181.78v19.19h18.47ZM285.74,177.4V194h88.62a67.25,67.25,0,1,0,0-134.49H83.75A83.79,83.79,0,0,0,0,143.24V259.13a83.79,83.79,0,0,0,83.75,83.75h92V326.3h-92a67.2,67.2,0,0,1-67.17-67.17V143.24A67.2,67.2,0,0,1,83.75,76.07H374.36a50.67,50.67,0,1,1,0,101.33Zm-50.8,90.16V185.29H157v82.27a12.35,12.35,0,0,0,12.35,12.35h53.23A12.36,12.36,0,0,0,234.94,267.56Zm-13.15-34.25A25.82,25.82,0,1,0,196,259.12,25.83,25.83,0,0,0,221.79,233.31Zm-83.06-52.58H113v70.15h25.69ZM211,238.31a15.81,15.81,0,1,1,0-10H196a5,5,0,1,0,0,10Zm-60-47.6h-6.28V240.9H151Zm-44,7.51H90.89v35.17H107ZM84.89,207H68.76V224.6H84.89Zm156.05-35.89v29.23h38.8V171.12ZM157,175.29h77.93V164.05a12.36,12.36,0,0,0-12.35-12.35H169.36A12.35,12.35,0,0,0,157,164.05Zm15-29.59H219.9V127.54a15.21,15.21,0,0,0-15.21-15.2H187.26a15.21,15.21,0,0,0-15.21,15.2Z"/><rect class="cls-2" width="480" height="480"/></g></g></svg>