<svg xmlns="http://www.w3.org/2000/svg" viewBox="0 0 88.53 90"><g id="Layer_2" data-name="Layer 2"><g id="Layer_1-2" data-name="Layer 1"><path d="M22.41,58h4.45a.9.9,0,0,0,.9-.9V43.57a.9.9,0,0,0-.9-.9H22.41a.9.9,0,0,0-.9.9V57.14A.9.9,0,0,0,22.41,58Zm.9-13.57H26V56.24H23.31Zm10.55-5a.9.9,0,0,0-.9.9V57.14a.9.9,0,0,0,.9.9h4.45a.9.9,0,0,0,.9-.9V40.39a.9.9,0,0,0-.9-.9Zm3.55,16.75H34.76v-15h2.65Zm7.9,1.8h4.46a.89.89,0,0,0,.89-.9V36.79a.89.89,0,0,0-.89-.9H45.31a.9.9,0,0,0-.9.9V57.14A.9.9,0,0,0,45.31,58Zm.9-20.36h2.65V56.24H46.21ZM21.51,17.92a.9.9,0,0,1,.9-.9H41.14a.9.9,0,1,1,0,1.8H22.41A.9.9,0,0,1,21.51,17.92Zm0,4.45a.9.9,0,0,1,.9-.9H41.14a.9.9,0,1,1,0,1.8H22.41A.9.9,0,0,1,21.51,22.37Zm0,4.46a.9.9,0,0,1,.9-.9H41.14a.9.9,0,1,1,0,1.79H22.41A.89.89,0,0,1,21.51,26.83Zm0,36.61a.9.9,0,0,1,.9-.9H41.14a.9.9,0,0,1,0,1.8H22.41A.9.9,0,0,1,21.51,63.44ZM64.09,82.1a.9.9,0,0,1-.9.9H22.41a.9.9,0,1,1,0-1.79H63.19a.9.9,0,0,1,.9.9ZM87.83,59.91l-2.37-.5c-.14-.4-.3-.79-.48-1.18l1.31-2a.91.91,0,0,0-.11-1.12l-4.54-4.53a.89.89,0,0,0-1.12-.12l-2,1.31c-.38-.18-.78-.34-1.17-.48l-.51-2.37a.91.91,0,0,0-.88-.71H73.62V17a7,7,0,0,0-7-7h-5V7a7,7,0,0,0-7-7H7A7,7,0,0,0,0,7V73a7,7,0,0,0,7,7h5v3a7,7,0,0,0,7,7H66.62a7,7,0,0,0,7-7V79.81h2.31a.89.89,0,0,0,.87-.71l.51-2.36c.4-.15.79-.31,1.17-.49l2,1.32a.89.89,0,0,0,1.12-.12l4.53-4.53a.91.91,0,0,0,.12-1.13l-1.31-2a12,12,0,0,0,.48-1.17l2.36-.51a.9.9,0,0,0,.71-.88V60.79a.9.9,0,0,0-.71-.88ZM7,78.19A5.2,5.2,0,0,1,1.8,73V7A5.2,5.2,0,0,1,7,1.8H54.64A5.21,5.21,0,0,1,59.84,7v3H19a7,7,0,0,0-7,7V78.19ZM71.82,83a5.2,5.2,0,0,1-5.2,5.2H19A5.2,5.2,0,0,1,13.78,83V17a5.21,5.21,0,0,1,5.2-5.2H66.62a5.2,5.2,0,0,1,5.2,5.2V48.18H69.51a.91.91,0,0,0-.88.71l-.51,2.37q-.59.21-1.17.48l-2-1.31a.89.89,0,0,0-1.12.12l-1.69,1.69V40.38a.91.91,0,0,0-.9-.9H56.75a.9.9,0,0,0-.89.9V57.13a.89.89,0,0,0,.89.9h3.58l.13.2A12,12,0,0,0,60,59.4l-2.36.51a.9.9,0,0,0-.71.88V67.2H22.41a.9.9,0,0,0,0,1.8H60.14c.1.25.2.51.32.76l-1.31,2a.2.2,0,0,0,0,.08H22.41a.9.9,0,1,0,0,1.79H60l2.87,2.87H22.41a.9.9,0,0,0,0,1.8H63.19a.9.9,0,0,0,.88-.71.88.88,0,0,0,.86-.06l2-1.31a12,12,0,0,0,1.17.48l.51,2.37a.91.91,0,0,0,.88.71h2.3V83ZM59.27,55.08a.91.91,0,0,0-.12,1.13l0,0H57.66v-15h2.65V54l-1,1Zm27.47,11.4-2.15.46a.88.88,0,0,0-.67.61,13,13,0,0,1-.77,1.86.91.91,0,0,0,0,.9l1.2,1.85-3.51,3.5L79,74.46a.9.9,0,0,0-.9,0,11.21,11.21,0,0,1-1.86.77.9.9,0,0,0-.61.67L75.2,78h-5l-.46-2.15a.9.9,0,0,0-.61-.67,11.21,11.21,0,0,1-1.86-.77.9.9,0,0,0-.9,0l-1.85,1.2-3.5-3.5,1.19-1.85a.88.88,0,0,0,0-.9,13,13,0,0,1-.77-1.86.89.89,0,0,0-.66-.61l-2.16-.46v-5l2.16-.46a.87.87,0,0,0,.66-.61,14.29,14.29,0,0,1,.77-1.86.88.88,0,0,0,0-.9l-1.19-1.85.78-.79,2.72-2.71,1.84,1.2a.92.92,0,0,0,.91,0,11.21,11.21,0,0,1,1.86-.77.91.91,0,0,0,.6-.67L70.25,50h5l.46,2.15a.9.9,0,0,0,.61.67,11.57,11.57,0,0,1,1.86.77.91.91,0,0,0,.9,0l1.85-1.2,3.5,3.5-1.19,1.85a.91.91,0,0,0,0,.9,12,12,0,0,1,.77,1.86.92.92,0,0,0,.67.61l2.15.46v5Zm-14-10.9A8.42,8.42,0,1,0,81.14,64,8.43,8.43,0,0,0,72.72,55.58Zm0,15A6.62,6.62,0,1,1,79.34,64,6.63,6.63,0,0,1,72.72,70.62Z"/></g></g></svg>