<svg xmlns="http://www.w3.org/2000/svg" viewBox="0 0 157.36 157.36"><defs><style>.cls-1{fill-rule:evenodd;}</style></defs><g id="Layer_2" data-name="Layer 2"><g id="Layer_1-2" data-name="Layer 1"><path class="cls-1" d="M131.15,46.92h-59a26,26,0,0,0-18,7.67,26.44,26.44,0,0,0-7.67,18.54V86.5L28.72,99.68c0-9.83,0-12.74-5.26-12.74A12.73,12.73,0,0,1,10.72,74.21h0v-48A15.79,15.79,0,0,1,26.46,10.48h59A15.79,15.79,0,0,1,101.2,26.21a5.26,5.26,0,1,0,10.47,1,4.35,4.35,0,0,0,0-1A26.2,26.2,0,0,0,85.47,0H26A26.21,26.21,0,0,0,0,26.21v48A23.27,23.27,0,0,0,18,96.83v2.85a10.42,10.42,0,0,0,5.75,9.39,10.76,10.76,0,0,0,4.92,1.13,10.31,10.31,0,0,0,6-2L54.39,93.43a5.45,5.45,0,0,0,2.11-4.17V73.13A16,16,0,0,1,61.12,62a15.78,15.78,0,0,1,11.12-4.62h59A15.8,15.8,0,0,1,147,73.13v48a12.79,12.79,0,0,1-12.74,12.74A5.21,5.21,0,0,0,129,139v7.87l-16.86-12.1a5.55,5.55,0,0,0-3.05-.93H72.38a15.79,15.79,0,0,1-15.73-15.74v-2.7a5.26,5.26,0,1,0-10.48-1,5.79,5.79,0,0,0,0,1V118a26.21,26.21,0,0,0,26.21,26.21H107.3l15.63,11.16a10.21,10.21,0,0,0,6.1,2,10.53,10.53,0,0,0,4.92-1.18,10.42,10.42,0,0,0,5.65-9.29v-3.15a23.27,23.27,0,0,0,17.76-22.62v-48a26.21,26.21,0,0,0-26.21-26.21Z"/><polygon class="cls-1" points="83.94 101.01 99.67 101.01 99.67 116.74 120.62 90.48 104.89 90.48 104.89 74.75 83.94 101.01"/></g></g></svg>