<svg xmlns="http://www.w3.org/2000/svg" viewBox="0 0 64 64"><defs><style>.cls-1{fill:none;}</style></defs><g id="Layer_2" data-name="Layer 2"><g id="Layer_1-2" data-name="Layer 1"><path d="M53,5a6.63,6.63,0,0,0-1,0V5H19A11,11,0,0,0,8,16V37H0V48A11,11,0,0,0,11,59H36v0c.33,0,.66,0,1,0A11,11,0,0,0,48,48V27H64V16A11,11,0,0,0,53,5ZM11,53a5,5,0,0,1-5-5V43H26v5a10.88,10.88,0,0,0,1.21,5ZM42,16V48a5,5,0,0,1-10,0V37H14V16a5,5,0,0,1,5-5H43.21A10.88,10.88,0,0,0,42,16Zm16,5H48V16a5,5,0,0,1,10,0Z"/><rect class="cls-1" width="64" height="64"/></g></g></svg>