<?xml version="1.0" encoding="utf-8"?>
<!-- Uploaded to: SVG Repo, www.svgrepo.com, Generator: SVG Repo Mixer Tools -->
<!DOCTYPE svg PUBLIC "-//W3C//DTD SVG 1.1//EN" "http://www.w3.org/Graphics/SVG/1.1/DTD/svg11.dtd">
<svg fill="#000000" width="800px" height="800px" viewBox="0 0 1000 1000" version="1.1" xmlns="http://www.w3.org/2000/svg" xmlns:xlink="http://www.w3.org/1999/xlink"  enable-background="new 0 0 1000 1000" xml:space="preserve">

<g>
<g transform="translate(0.000000,511.000000) scale(0.100000,-0.100000)">
<path d="M1691,4557.7l-450.3-450.3l119-119l119-119l248,248l248,248l4-1696.2l5.9-1696.2h168.6h168.6l5.9,1696.2l4,1696.2l248-248l248-248l119,119l119,119l-450.3,450.3c-248,250-456.3,452.3-462.2,452.3C2147.3,5010,1939,4807.6,1691,4557.7z"/>
<path d="M4682.6,2798.1l-317.4-182.5L4355.3,842l-9.9-1773.5l-253.9,442.4L3835.5-48.7h-388.8h-390.8l-196.4-339.2L2665-725.2l127-222.2c69.4-123,224.2-388.8,341.2-595.1l214.3-371l97.2-472.1l99.2-470.2l573.3-575.3l575.3-575.3v-392.8V-4790h168.6h168.6v460.2v462.2l-587.2,587.2l-587.2,587.2l-93.2,454.3l-95.2,454.3l-299.5,519.8c-166.7,285.7-301.5,529.7-301.5,541.6c0,11.9,41.7,93.2,91.3,180.5l91.3,158.7l198.4-5.9l198.4-5.9l519.8-898.7l517.8-898.7l5.9,2307.2l6,2307.2l166.6,95.2l168.6,93.2l168.6-93.2l168.6-95.2V1018.6V-385.9h168.6h168.6v343.2v341.2l168.6,95.2c93.2,53.6,176.6,93.2,184.5,89.3c7.9-4,83.3-43.6,168.6-91.3l152.8-85.3V-40.8v-345.2h168.6H6714l6,240l6,242l168.6,95.2l166.6,95.2l178.6-95.2l176.5-95.2l-4-242l-4-240H7577h170.6v174.6v172.6l162.7,89.3c89.3,49.6,170.6,87.3,180.5,83.3c9.9-2,89.3-45.6,174.6-95.2L8422-52.7v-1019.7V-2092l-337.2-898.7l-337.2-900.7v-448.3V-4790h168.6h168.6v416.6v416.6l337.2,898.7l337.3,900.7v1148.6V139.8l-339.2,196.4l-339.3,194.4l-93.2-51.6c-49.6-29.7-128.9-73.4-176.5-97.2l-85.3-41.7l-333.3,164.6l-333.3,166.6l-160.7-91.3c-89.3-51.6-168.6-93.2-176.6-93.2c-7.9,0-87.3,43.6-174.6,95.2c-87.3,53.6-236.1,140.9-329.3,196.4l-170.6,101.2l-166.6-97.2l-166.7-95.2l-9.9,962.1l-9.9,964.1l-317.4,184.5c-174.6,103.2-331.3,186.5-347.2,186.5C5013.9,2982.5,4857.2,2899.2,4682.6,2798.1z"/>
</g>
</g>
</svg>