<svg xmlns="http://www.w3.org/2000/svg" viewBox="0 0 68 68"><defs><style>.cls-1{fill:none;}</style></defs><g id="Layer_2" data-name="Layer 2"><g id="Layer_1-2" data-name="Layer 1"><path d="M28,34A14,14,0,1,0,14,48,14,14,0,0,0,28,34ZM4,34A10,10,0,1,1,14,44,10,10,0,0,1,4,34Z"/><path d="M68,34A14,14,0,1,0,54,48,14,14,0,0,0,68,34ZM54,44A10,10,0,1,1,64,34,10,10,0,0,1,54,44Z"/><circle cx="34" cy="34" r="2"/><circle cx="34" cy="40" r="2"/><circle cx="34" cy="28" r="2"/><path d="M36,4a2,2,0,0,0-4,0V22a2,2,0,0,0,4,0Z"/><path d="M34,44a2,2,0,0,0-2,2V64a2,2,0,0,0,4,0V46A2,2,0,0,0,34,44Z"/><rect class="cls-1" width="68" height="68"/></g></g></svg>