<svg xmlns="http://www.w3.org/2000/svg" viewBox="0 0 120 120"><defs><style>.cls-1{fill:none;}</style></defs><g id="Layer_2" data-name="Layer 2"><g id="Layer_1-2" data-name="Layer 1"><path d="M100,10V4a4,4,0,0,0-4-4H24a4,4,0,0,0-4,4v6a4,4,0,0,0,4,4H34.82a25,25,0,0,0,8.76,43l3.72,1.17a2,2,0,0,1,0,3.74L43.58,63a25,25,0,0,0-8.76,43H24a4,4,0,0,0-4,4v6a4,4,0,0,0,4,4H96a4,4,0,0,0,4-4v-6a4,4,0,0,0-4-4H85.18a25,25,0,0,0-8.76-43L72.7,61.87a2,2,0,0,1,0-3.74L76.42,57a25,25,0,0,0,8.76-43H96A4,4,0,0,0,100,10Zm-10,23a21,21,0,0,1-14.77,20.1l-3.72,1.16a6,6,0,0,0,0,11.38l3.72,1.16A21.05,21.05,0,0,1,77.89,106H42.11a21.05,21.05,0,0,1,2.66-39.15l3.72-1.16a6,6,0,0,0,0-11.38l-3.72-1.16A21.05,21.05,0,0,1,42.11,14H77.89A21.06,21.06,0,0,1,90,33.05Z"/><path d="M36.07,42a17.32,17.32,0,0,0,9.62,7.32L54.39,52l.39.12C56.47,52.64,58.23,56,60,56s3.53-3.36,5.22-3.88l.39-.12,8.7-2.68A17.32,17.32,0,0,0,83.93,42,133.87,133.87,0,0,1,60,44,133.87,133.87,0,0,1,36.07,42Z"/><path d="M35,79.91a16.65,16.65,0,0,0-1.54,7,17.25,17.25,0,0,0,17.41,17H69.09A17.25,17.25,0,0,0,86.5,87,16.8,16.8,0,0,0,85,80c-.32-.7-16-6-25-6S35.34,79.25,35,79.91Z"/><circle cx="60" cy="60" r="2"/><circle cx="60" cy="66" r="2"/><rect class="cls-1" width="120" height="120"/></g></g></svg>