<svg xmlns="http://www.w3.org/2000/svg" viewBox="0 0 801 801"><defs><style>.cls-1{fill:none;stroke:#000;stroke-miterlimit:10;}</style></defs><g id="Layer_2" data-name="Layer 2"><g id="Capa_1" data-name="Capa 1"><path d="M577.27,12.11A36.1,36.1,0,0,0,550.18.5H250.82a36.1,36.1,0,0,0-27.09,11.61L12.11,223.73A36.1,36.1,0,0,0,.5,250.82V550.18a36.1,36.1,0,0,0,11.61,27.09L223.73,788.89c7.09,7.09,17.42,11.61,27.09,11.61H550.18a36.1,36.1,0,0,0,27.09-11.61L788.89,577.27c7.09-7.1,11.61-17.42,11.61-27.09V250.82a36.1,36.1,0,0,0-11.61-27.09ZM710.18,512.76a36.07,36.07,0,0,1-11.62,27.09L539.85,698.56c-7.09,7.1-17.41,11.62-27.09,11.62H288.24a36.07,36.07,0,0,1-27.09-11.62L102.44,539.85a36.07,36.07,0,0,1-11.62-27.09V288.24a36.07,36.07,0,0,1,11.62-27.09L261.15,102.44c7.09-7.1,17.41-11.62,27.09-11.62H512.76a36.07,36.07,0,0,1,27.09,11.62L698.56,261.15c7.1,7.09,11.62,17.41,11.62,27.09Z"/><path d="M419.85,148.89h-38.7a38.82,38.82,0,0,0-38.71,38.71V452.11a38.82,38.82,0,0,0,38.71,38.71h38.7a38.82,38.82,0,0,0,38.71-38.71V187.6A38.82,38.82,0,0,0,419.85,148.89Z"/><circle cx="400.5" cy="590.82" r="58.06"/><rect class="cls-1" x="0.5" y="0.5" width="800" height="800"/></g></g></svg>